<svg xmlns="http://www.w3.org/2000/svg" width="209" height="16" viewBox="0 0 209 16"><g transform="translate(-616 -19)"><g transform="translate(2.845 -408.89)"><path d="M-87.836-6.282a1.165,1.165,0,0,1-.73-.215.634.634,0,0,1-.279-.515V-21.251a.634.634,0,0,1,.279-.515,1.165,1.165,0,0,1,.73-.215h3.8a6.2,6.2,0,0,1,2.459.472,3.673,3.673,0,0,1,1.74,1.525,5.375,5.375,0,0,1,.634,2.792v6.121a5.375,5.375,0,0,1-.634,2.792,3.673,3.673,0,0,1-1.74,1.525,6.2,6.2,0,0,1-2.459.472ZM-86.568-8.3h2.534a2.54,2.54,0,0,0,1.879-.677,2.854,2.854,0,0,0,.677-2.094v-6.121a2.854,2.854,0,0,0-.677-2.094,2.54,2.54,0,0,0-1.879-.677h-2.534ZM-76.26-6.282a1.84,1.84,0,0,1-.644-.129,1.63,1.63,0,0,1-.558-.333.645.645,0,0,1-.215-.483,1.293,1.293,0,0,1,.021-.193l4.274-13.917a.968.968,0,0,1,.548-.58,2.1,2.1,0,0,1,.891-.193,2.151,2.151,0,0,1,.913.193.968.968,0,0,1,.548.58L-66.23-7.42a.681.681,0,0,1,.043.193.643.643,0,0,1-.225.472,1.675,1.675,0,0,1-.558.344,1.806,1.806,0,0,1-.655.129,1.024,1.024,0,0,1-.483-.107.606.606,0,0,1-.29-.365L-69.28-9.8h-5.326l-.859,3.05a.522.522,0,0,1-.29.365A1.159,1.159,0,0,1-76.26-6.282Zm2.169-5.348h4.3L-71.943-19Zm10.738,5.348a1.61,1.61,0,0,1-.784-.193.607.607,0,0,1-.354-.558V-21.251a.58.58,0,0,1,.354-.558,1.773,1.773,0,0,1,.784-.172,1.773,1.773,0,0,1,.784.172.58.58,0,0,1,.354.558V-7.033a.607.607,0,0,1-.354.558A1.61,1.61,0,0,1-63.352-6.282Zm7.925.172a6.924,6.924,0,0,1-2.47-.408,4.789,4.789,0,0,1-1.675-1,1.654,1.654,0,0,1-.6-1.128,1.2,1.2,0,0,1,.14-.537,1.625,1.625,0,0,1,.365-.483.71.71,0,0,1,.483-.2.832.832,0,0,1,.569.247q.268.247.655.591a3.713,3.713,0,0,0,.966.6,3.669,3.669,0,0,0,1.482.258,3.675,3.675,0,0,0,1.385-.247,2.117,2.117,0,0,0,.966-.752,2.172,2.172,0,0,0,.354-1.278,2.3,2.3,0,0,0-.376-1.353,3.091,3.091,0,0,0-1.009-.9,11.49,11.49,0,0,0-1.364-.666q-.73-.3-1.482-.644a6.937,6.937,0,0,1-1.375-.827,3.566,3.566,0,0,1-1-1.224,4.087,4.087,0,0,1-.376-1.858,4.033,4.033,0,0,1,.44-1.976,3.5,3.5,0,0,1,1.17-1.267,5.029,5.029,0,0,1,1.611-.677,7.688,7.688,0,0,1,1.74-.2,10.533,10.533,0,0,1,1.192.075,7.625,7.625,0,0,1,1.278.258,3.283,3.283,0,0,1,1.031.483.885.885,0,0,1,.408.73,1.488,1.488,0,0,1-.107.5,1.46,1.46,0,0,1-.311.5.693.693,0,0,1-.526.215,1.246,1.246,0,0,1-.623-.2,5.617,5.617,0,0,0-.891-.408,4.243,4.243,0,0,0-1.45-.2,4.168,4.168,0,0,0-1.385.215,2.1,2.1,0,0,0-.956.634,1.689,1.689,0,0,0-.344,1.106,1.676,1.676,0,0,0,.376,1.128,3.131,3.131,0,0,0,1,.752,14.431,14.431,0,0,0,1.364.591,14.857,14.857,0,0,1,1.482.655,7.056,7.056,0,0,1,1.375.913,3.837,3.837,0,0,1,1.009,1.364,4.952,4.952,0,0,1,.376,2.051,4.786,4.786,0,0,1-.634,2.566A3.849,3.849,0,0,1-52.9-6.6,6.129,6.129,0,0,1-55.428-6.11Zm11.855-.043a6.334,6.334,0,0,1-2.491-.472A3.722,3.722,0,0,1-47.825-8.15a5.3,5.3,0,0,1-.644-2.792V-21.251a.581.581,0,0,1,.344-.558,1.755,1.755,0,0,1,.795-.172,1.794,1.794,0,0,1,.773.172.579.579,0,0,1,.365.558v10.309a2.826,2.826,0,0,0,.687,2.094,2.638,2.638,0,0,0,1.933.677,2.684,2.684,0,0,0,1.933-.677,2.774,2.774,0,0,0,.709-2.094V-21.251a.581.581,0,0,1,.344-.558,1.755,1.755,0,0,1,.795-.172,1.794,1.794,0,0,1,.773.172.579.579,0,0,1,.365.558v10.309a5.233,5.233,0,0,1-.655,2.792,3.781,3.781,0,0,1-1.772,1.525A6.334,6.334,0,0,1-43.572-6.153Zm8.805-.129a1.61,1.61,0,0,1-.784-.193.607.607,0,0,1-.354-.558V-21.251a.58.58,0,0,1,.354-.558,1.773,1.773,0,0,1,.784-.172,1.773,1.773,0,0,1,.784.172.58.58,0,0,1,.354.558v6.529l5.24-6.937a.756.756,0,0,1,.644-.322,1.227,1.227,0,0,1,.591.172,1.622,1.622,0,0,1,.515.44.925.925,0,0,1,.2.569.707.707,0,0,1-.043.215.76.76,0,0,1-.129.236l-4.123,5.154,4.9,7.452a.724.724,0,0,1,.129.408A.883.883,0,0,1-25.9-6.8a1.454,1.454,0,0,1-.5.419,1.365,1.365,0,0,1-.634.161,1.087,1.087,0,0,1-.451-.1.849.849,0,0,1-.365-.333l-4.381-6.636-1.4,1.761v4.489a.607.607,0,0,1-.354.558A1.61,1.61,0,0,1-34.767-6.282Zm11.511,0a1.314,1.314,0,0,1-.687-.193.615.615,0,0,1-.322-.558v-14.2a.615.615,0,0,1,.322-.558,1.314,1.314,0,0,1,.687-.193h7.646a.6.6,0,0,1,.58.322,1.4,1.4,0,0,1,.172.666,1.336,1.336,0,0,1-.193.719.619.619,0,0,1-.558.311h-6.379v4.918h3.307a.637.637,0,0,1,.558.279,1.1,1.1,0,0,1,.193.644,1.146,1.146,0,0,1-.172.591.619.619,0,0,1-.58.29h-3.307V-8.3h6.379a.624.624,0,0,1,.558.3,1.322,1.322,0,0,1,.193.73,1.4,1.4,0,0,1-.172.666.6.6,0,0,1-.58.322Zm24.226,0a1.61,1.61,0,0,1-.784-.193.607.607,0,0,1-.354-.558V-21.251a.58.58,0,0,1,.354-.558,1.773,1.773,0,0,1,.784-.172,1.773,1.773,0,0,1,.784.172.58.58,0,0,1,.354.558v6.529l5.24-6.937a.756.756,0,0,1,.644-.322,1.227,1.227,0,0,1,.591.172,1.622,1.622,0,0,1,.515.44.925.925,0,0,1,.2.569.707.707,0,0,1-.043.215.76.76,0,0,1-.129.236L5.007-15.195,9.9-7.742a.724.724,0,0,1,.129.408A.883.883,0,0,1,9.84-6.8a1.454,1.454,0,0,1-.5.419,1.365,1.365,0,0,1-.634.161,1.087,1.087,0,0,1-.451-.1.849.849,0,0,1-.365-.333L3.5-13.283l-1.4,1.761v4.489a.607.607,0,0,1-.354.558A1.61,1.61,0,0,1,.97-6.282Zm14.883.129a6.1,6.1,0,0,1-2.459-.472A3.691,3.691,0,0,1,11.676-8.15a5.375,5.375,0,0,1-.634-2.792v-6.25a5.375,5.375,0,0,1,.634-2.792,3.691,3.691,0,0,1,1.718-1.525,6.1,6.1,0,0,1,2.459-.472,6.121,6.121,0,0,1,2.448.472,3.74,3.74,0,0,1,1.74,1.525,5.3,5.3,0,0,1,.644,2.792v6.25a5.3,5.3,0,0,1-.644,2.792A3.74,3.74,0,0,1,18.3-6.625,6.121,6.121,0,0,1,15.853-6.153Zm0-2.019a2.548,2.548,0,0,0,1.868-.677,2.826,2.826,0,0,0,.687-2.094v-6.25a2.854,2.854,0,0,0-.677-2.094,2.54,2.54,0,0,0-1.879-.677,2.54,2.54,0,0,0-1.879.677,2.854,2.854,0,0,0-.677,2.094v6.25a2.854,2.854,0,0,0,.677,2.094A2.54,2.54,0,0,0,15.853-8.172Zm8.634,1.89a1.61,1.61,0,0,1-.784-.193.607.607,0,0,1-.354-.558v-14.2a.6.6,0,0,1,.354-.58,1.773,1.773,0,0,1,.784-.172,1.849,1.849,0,0,1,.7.118,1.369,1.369,0,0,1,.526.4,4.28,4.28,0,0,1,.494.773l4.768,9.3v-9.858a.58.58,0,0,1,.354-.558,1.773,1.773,0,0,1,.784-.172,1.773,1.773,0,0,1,.784.172.58.58,0,0,1,.354.558V-7.033a.607.607,0,0,1-.354.558,1.61,1.61,0,0,1-.784.193,1.429,1.429,0,0,1-.773-.215,1.745,1.745,0,0,1-.58-.623l-5.133-9.772v9.858a.607.607,0,0,1-.354.558A1.61,1.61,0,0,1,24.487-6.282Zm12.736,0a1.61,1.61,0,0,1-.784-.193.607.607,0,0,1-.354-.558V-21.251a.58.58,0,0,1,.354-.558,1.773,1.773,0,0,1,.784-.172,1.773,1.773,0,0,1,.784.172.58.58,0,0,1,.354.558V-7.033a.607.607,0,0,1-.354.558A1.61,1.61,0,0,1,37.222-6.282Z" transform="translate(720 450)" fill="#fff"/><g transform="translate(711.223 432.264)"><g transform="translate(0 0)"><path d="M2.864,17.354l1.77,1.123-.468-2.119,1.562-1.425-2.059-.186-.8-2-.8,2L0,14.934l1.562,1.425-.468,2.119Z" transform="translate(0 -12.75)" fill="#fff"/></g></g></g><text transform="translate(798 32)" fill="#eea5f6" font-size="12" font-family="Dosis-SemiBold, Dosis" font-weight="600"><tspan x="-26.982" y="0">PORTFOLIO</tspan></text><g transform="translate(503.487 19)"><path d="M113.609,8,120.834.774a.453.453,0,0,0-.64-.64l-7.548,7.548a.451.451,0,0,0,0,.64l7.548,7.544a.456.456,0,0,0,.319.134.442.442,0,0,0,.319-.134.451.451,0,0,0,0-.64Z" transform="translate(0 0)" fill="#fff"/></g></g></svg>