<svg xmlns="http://www.w3.org/2000/svg" width="177.69" height="22.35" viewBox="0 0 177.69 22.35"><g transform="translate(-631.155 -427.89)"><path d="M-87.435,0a1.627,1.627,0,0,1-1.02-.3.886.886,0,0,1-.39-.72V-20.91a.886.886,0,0,1,.39-.72,1.627,1.627,0,0,1,1.02-.3h5.31a8.658,8.658,0,0,1,3.435.66,5.13,5.13,0,0,1,2.43,2.13,7.508,7.508,0,0,1,.885,3.9v8.55a7.508,7.508,0,0,1-.885,3.9A5.13,5.13,0,0,1-78.69-.66,8.658,8.658,0,0,1-82.125,0Zm1.77-2.82h3.54A3.548,3.548,0,0,0-79.5-3.765a3.987,3.987,0,0,0,.945-2.925v-8.55a3.987,3.987,0,0,0-.945-2.925,3.548,3.548,0,0,0-2.625-.945h-3.54ZM-71.265,0a2.571,2.571,0,0,1-.9-.18,2.277,2.277,0,0,1-.78-.465.9.9,0,0,1-.3-.675,1.805,1.805,0,0,1,.03-.27l5.97-19.44a1.352,1.352,0,0,1,.765-.81,2.935,2.935,0,0,1,1.245-.27,3.005,3.005,0,0,1,1.275.27,1.352,1.352,0,0,1,.765.81l5.94,19.44a.952.952,0,0,1,.06.27.9.9,0,0,1-.315.66,2.339,2.339,0,0,1-.78.48A2.523,2.523,0,0,1-59.2,0a1.43,1.43,0,0,1-.675-.15.847.847,0,0,1-.405-.51l-1.23-4.26h-7.44l-1.2,4.26a.729.729,0,0,1-.405.51A1.619,1.619,0,0,1-71.265,0Zm3.03-7.47h6l-3-10.29Zm15,7.47a2.249,2.249,0,0,1-1.1-.27.848.848,0,0,1-.495-.78V-20.91a.81.81,0,0,1,.495-.78,2.476,2.476,0,0,1,1.1-.24,2.476,2.476,0,0,1,1.1.24.81.81,0,0,1,.495.78V-1.05a.848.848,0,0,1-.495.78A2.249,2.249,0,0,1-53.235,0Zm11.07.24a9.672,9.672,0,0,1-3.45-.57,6.69,6.69,0,0,1-2.34-1.4,2.31,2.31,0,0,1-.84-1.575,1.676,1.676,0,0,1,.195-.75,2.27,2.27,0,0,1,.51-.675.991.991,0,0,1,.675-.285,1.162,1.162,0,0,1,.795.345q.375.345.915.825a5.186,5.186,0,0,0,1.35.84,5.125,5.125,0,0,0,2.07.36,5.134,5.134,0,0,0,1.935-.345A2.957,2.957,0,0,0-39-4.035,3.034,3.034,0,0,0-38.5-5.82a3.218,3.218,0,0,0-.525-1.89,4.318,4.318,0,0,0-1.41-1.26,16.05,16.05,0,0,0-1.905-.93q-1.02-.42-2.07-.9a9.69,9.69,0,0,1-1.92-1.155,4.981,4.981,0,0,1-1.395-1.71,5.709,5.709,0,0,1-.525-2.6,5.634,5.634,0,0,1,.615-2.76A4.89,4.89,0,0,1-46-20.79a7.025,7.025,0,0,1,2.25-.945,10.739,10.739,0,0,1,2.43-.285,14.713,14.713,0,0,1,1.665.105,10.651,10.651,0,0,1,1.785.36,4.586,4.586,0,0,1,1.44.675,1.237,1.237,0,0,1,.57,1.02,2.078,2.078,0,0,1-.15.705,2.039,2.039,0,0,1-.435.7.969.969,0,0,1-.735.3,1.741,1.741,0,0,1-.87-.285A7.846,7.846,0,0,0-39.3-19a5.926,5.926,0,0,0-2.025-.285,5.823,5.823,0,0,0-1.935.3,2.933,2.933,0,0,0-1.335.885,2.359,2.359,0,0,0-.48,1.545,2.341,2.341,0,0,0,.525,1.575,4.373,4.373,0,0,0,1.395,1.05,20.157,20.157,0,0,0,1.905.825,20.754,20.754,0,0,1,2.07.915,9.856,9.856,0,0,1,1.92,1.275,5.36,5.36,0,0,1,1.41,1.9,6.918,6.918,0,0,1,.525,2.865,6.685,6.685,0,0,1-.885,3.585A5.377,5.377,0,0,1-38.64-.45,8.561,8.561,0,0,1-42.165.24ZM-25.6.18a8.847,8.847,0,0,1-3.48-.66,5.2,5.2,0,0,1-2.46-2.13,7.407,7.407,0,0,1-.9-3.9v-14.4a.812.812,0,0,1,.48-.78,2.451,2.451,0,0,1,1.11-.24,2.506,2.506,0,0,1,1.08.24.808.808,0,0,1,.51.78v14.4a3.948,3.948,0,0,0,.96,2.925,3.685,3.685,0,0,0,2.7.945,3.749,3.749,0,0,0,2.7-.945,3.874,3.874,0,0,0,.99-2.925v-14.4a.812.812,0,0,1,.48-.78,2.451,2.451,0,0,1,1.11-.24,2.506,2.506,0,0,1,1.08.24.808.808,0,0,1,.51.78v14.4a7.31,7.31,0,0,1-.915,3.9A5.282,5.282,0,0,1-22.125-.48,8.847,8.847,0,0,1-25.6.18Zm12.3-.18A2.249,2.249,0,0,1-14.4-.27a.848.848,0,0,1-.5-.78V-20.91a.81.81,0,0,1,.5-.78,2.476,2.476,0,0,1,1.095-.24,2.476,2.476,0,0,1,1.1.24.81.81,0,0,1,.495.78v9.12l7.32-9.69a1.057,1.057,0,0,1,.9-.45,1.715,1.715,0,0,1,.825.24,2.265,2.265,0,0,1,.72.615,1.292,1.292,0,0,1,.285.795.987.987,0,0,1-.06.3,1.062,1.062,0,0,1-.18.33l-5.76,7.2L-.825-2.04a1.011,1.011,0,0,1,.18.57,1.234,1.234,0,0,1-.27.75,2.031,2.031,0,0,1-.705.585A1.907,1.907,0,0,1-2.505.09a1.518,1.518,0,0,1-.63-.135,1.186,1.186,0,0,1-.51-.465l-6.12-9.27-1.95,2.46v6.27a.848.848,0,0,1-.495.78A2.249,2.249,0,0,1-13.305,0ZM2.775,0a1.835,1.835,0,0,1-.96-.27.859.859,0,0,1-.45-.78V-20.88a.859.859,0,0,1,.45-.78,1.835,1.835,0,0,1,.96-.27h10.68a.844.844,0,0,1,.81.45,1.952,1.952,0,0,1,.24.93,1.866,1.866,0,0,1-.27,1,.865.865,0,0,1-.78.435H4.545v6.87h4.62a.89.89,0,0,1,.78.39,1.542,1.542,0,0,1,.27.9,1.6,1.6,0,0,1-.24.825.865.865,0,0,1-.81.4H4.545v6.9h8.91a.872.872,0,0,1,.78.42,1.847,1.847,0,0,1,.27,1.02,1.952,1.952,0,0,1-.24.93.844.844,0,0,1-.81.45Zm33.84,0a2.249,2.249,0,0,1-1.1-.27.848.848,0,0,1-.495-.78V-20.91a.81.81,0,0,1,.495-.78,2.476,2.476,0,0,1,1.1-.24,2.476,2.476,0,0,1,1.1.24.81.81,0,0,1,.495.78v9.12l7.32-9.69a1.057,1.057,0,0,1,.9-.45,1.715,1.715,0,0,1,.825.24,2.265,2.265,0,0,1,.72.615,1.292,1.292,0,0,1,.285.795.987.987,0,0,1-.06.3,1.062,1.062,0,0,1-.18.33l-5.76,7.2L49.1-2.04a1.011,1.011,0,0,1,.18.57,1.234,1.234,0,0,1-.27.75,2.03,2.03,0,0,1-.705.585,1.907,1.907,0,0,1-.885.225,1.518,1.518,0,0,1-.63-.135,1.186,1.186,0,0,1-.51-.465l-6.12-9.27-1.95,2.46v6.27a.848.848,0,0,1-.495.78A2.249,2.249,0,0,1,36.615,0Zm20.79.18A8.521,8.521,0,0,1,53.97-.48a5.155,5.155,0,0,1-2.4-2.13,7.508,7.508,0,0,1-.885-3.9v-8.73a7.508,7.508,0,0,1,.885-3.9,5.155,5.155,0,0,1,2.4-2.13,8.521,8.521,0,0,1,3.435-.66,8.55,8.55,0,0,1,3.42.66,5.224,5.224,0,0,1,2.43,2.13,7.407,7.407,0,0,1,.9,3.9v8.73a7.407,7.407,0,0,1-.9,3.9,5.224,5.224,0,0,1-2.43,2.13A8.55,8.55,0,0,1,57.405.18Zm0-2.82a3.559,3.559,0,0,0,2.61-.945,3.948,3.948,0,0,0,.96-2.925v-8.73a3.987,3.987,0,0,0-.945-2.925,3.548,3.548,0,0,0-2.625-.945,3.548,3.548,0,0,0-2.625.945,3.987,3.987,0,0,0-.945,2.925v8.73a3.987,3.987,0,0,0,.945,2.925A3.548,3.548,0,0,0,57.405-2.64ZM69.465,0a2.249,2.249,0,0,1-1.1-.27.848.848,0,0,1-.495-.78V-20.88a.832.832,0,0,1,.495-.81,2.476,2.476,0,0,1,1.1-.24,2.582,2.582,0,0,1,.975.165,1.912,1.912,0,0,1,.735.555,5.979,5.979,0,0,1,.69,1.08l6.66,12.99V-20.91a.81.81,0,0,1,.5-.78,2.476,2.476,0,0,1,1.1-.24,2.476,2.476,0,0,1,1.1.24.81.81,0,0,1,.495.78V-1.05a.848.848,0,0,1-.495.78,2.249,2.249,0,0,1-1.1.27,2,2,0,0,1-1.08-.3,2.438,2.438,0,0,1-.81-.87l-7.17-13.65V-1.05a.848.848,0,0,1-.5.78A2.249,2.249,0,0,1,69.465,0Zm17.79,0a2.249,2.249,0,0,1-1.1-.27.848.848,0,0,1-.495-.78V-20.91a.81.81,0,0,1,.495-.78,2.476,2.476,0,0,1,1.1-.24,2.476,2.476,0,0,1,1.1.24.81.81,0,0,1,.5.78V-1.05a.848.848,0,0,1-.5.78A2.249,2.249,0,0,1,87.255,0Z" transform="translate(720 450)" fill="#0c093c"/><g transform="translate(743 421.25)"><g transform="translate(0 12.75)"><path d="M4,19.181,6.472,20.75l-.654-2.96L8,15.8l-2.876-.26L4,12.75,2.876,15.54,0,15.8l2.182,1.99-.654,2.96Z" transform="translate(0 -12.75)" fill="#0c093c"/></g></g></g></svg>